<?xml version="1.0" encoding="UTF-8" standalone="no"?>
<!-- Svg Vector Icons : http://www.onlinewebfonts.com/icon -->

<svg
   xmlns:dc="http://purl.org/dc/elements/1.1/"
   xmlns:cc="http://creativecommons.org/ns#"
   xmlns:rdf="http://www.w3.org/1999/02/22-rdf-syntax-ns#"
   xmlns:svg="http://www.w3.org/2000/svg"
   xmlns="http://www.w3.org/2000/svg"
   xmlns:sodipodi="http://sodipodi.sourceforge.net/DTD/sodipodi-0.dtd"
   xmlns:inkscape="http://www.inkscape.org/namespaces/inkscape"
   version="1.1"
   x="0px"
   y="0px"
   viewBox="0 0 1000 1000"
   enable-background="new 0 0 1000 1000"
   xml:space="preserve"
   id="svg2"
   inkscape:version="0.91 r13725"
   sodipodi:docname="calendar.svg"><defs
     id="defs36" /><sodipodi:namedview
     pagecolor="#ffffff"
     bordercolor="#666666"
     borderopacity="1"
     objecttolerance="10"
     gridtolerance="10"
     guidetolerance="10"
     inkscape:pageopacity="0"
     inkscape:pageshadow="2"
     inkscape:window-width="1172"
     inkscape:window-height="608"
     id="namedview34"
     showgrid="false"
     inkscape:zoom="0.24"
     inkscape:cx="-105.9322"
     inkscape:cy="500"
     inkscape:window-x="0"
     inkscape:window-y="0"
     inkscape:window-maximized="0"
     inkscape:current-layer="svg2" /><metadata
     id="metadata4"> Svg Vector Icons : http://www.onlinewebfonts.com/icon <rdf:RDF><cc:Work
     rdf:about=""><dc:format>image/svg+xml</dc:format><dc:type
       rdf:resource="http://purl.org/dc/dcmitype/StillImage" /></cc:Work></rdf:RDF></metadata><g
     id="g6"
     style="fill:#ffffff"><path
       d="M684.8,378.7h139.1v139.1H684.8V378.7z"
       id="path8"
       style="fill:#ffffff" /><path
       d="M684.8,549.2h139.1v138.9H684.8V549.2z"
       id="path10"
       style="fill:#ffffff" /><path
       d="M786.1,50.7c0-22.3-18.4-40.7-40.7-40.7h-7.3c-22.3,0-40.7,18.4-40.7,40.7v77.2h88.6L786.1,50.7L786.1,50.7z"
       id="path12"
       style="fill:#ffffff" /><path
       d="M515.2,375.1h139.1V514H515.2V375.1z"
       id="path14"
       style="fill:#ffffff" /><path
       d="M309,50.7c0-22.3-18.4-40.7-40.9-40.7h-7c-22.5,0-40.9,18.4-40.9,40.7v77.2H309L309,50.7L309,50.7z"
       id="path16"
       style="fill:#ffffff" /><path
       d="M345.5,376.9h138.8v139.1H345.5V376.9L345.5,376.9z"
       id="path18"
       style="fill:#ffffff" /><path
       d="M172,722.6h138.8v139.1H172V722.6z"
       id="path20"
       style="fill:#ffffff" /><path
       d="M175.6,551h139.1v139.1H175.6V551z"
       id="path22"
       style="fill:#ffffff" /><path
       d="M851.8,127.9h-65.8v85.8c0,22.3-18.4,40.7-40.7,40.7h-7.3c-22.3,0-40.7-18.4-40.7-40.7v-85.8H309v85.8c0,22.3-18.4,40.7-40.9,40.7h-7c-22.5,0-40.9-18.4-40.9-40.7v-85.8h-72c-43.5,0-79,35.5-79,79v704c0,43.5,35.5,79,79,79h526l256.7-260.7V206.9C930.8,163.4,895.4,127.9,851.8,127.9z M892.5,732.9l-155.1-0.5c-43.5-0.3-70.7,28.5-70.4,71.8l0.8,146.9H145.8c-19.7,0-40.4-13-40.4-36.3V288.3l787.1-0.3V732.9z"
       id="path24"
       style="fill:#ffffff" /><path
       d="M345.5,547.2h138.8v139.2H345.5V547.2z"
       id="path26"
       style="fill:#ffffff" /><path
       d="M175.6,380.5h139.1v139.1H175.6V380.5L175.6,380.5z"
       id="path28"
       style="fill:#ffffff" /><path
       d="M515.2,545.3h139.1v139.1H515.2V545.3z"
       id="path30"
       style="fill:#ffffff" /><path
       d="M341.6,719h139.1v139.1H341.6V719z"
       id="path32"
       style="fill:#ffffff" /></g></svg>