<?xml version="1.0" encoding="UTF-8" standalone="no"?>
<!-- Svg Vector Icons : http://www.onlinewebfonts.com/icon -->

<svg
   xmlns:dc="http://purl.org/dc/elements/1.1/"
   xmlns:cc="http://creativecommons.org/ns#"
   xmlns:rdf="http://www.w3.org/1999/02/22-rdf-syntax-ns#"
   xmlns:svg="http://www.w3.org/2000/svg"
   xmlns="http://www.w3.org/2000/svg"
   xmlns:sodipodi="http://sodipodi.sourceforge.net/DTD/sodipodi-0.dtd"
   xmlns:inkscape="http://www.inkscape.org/namespaces/inkscape"
   version="1.1"
   x="0px"
   y="0px"
   viewBox="0 0 1000 1000"
   enable-background="new 0 0 1000 1000"
   xml:space="preserve"
   id="svg2"
   inkscape:version="0.91 r13725"
   sodipodi:docname="judge.svg"><defs
     id="defs18" /><sodipodi:namedview
     pagecolor="#ffffff"
     bordercolor="#666666"
     borderopacity="1"
     objecttolerance="10"
     gridtolerance="10"
     guidetolerance="10"
     inkscape:pageopacity="0"
     inkscape:pageshadow="2"
     inkscape:window-width="699"
     inkscape:window-height="480"
     id="namedview16"
     showgrid="false"
     inkscape:zoom="0.3337544"
     inkscape:cx="-49.54845"
     inkscape:cy="487.58927"
     inkscape:window-x="440"
     inkscape:window-y="25"
     inkscape:window-maximized="0"
     inkscape:current-layer="svg2" /><metadata
     id="metadata4"> Svg Vector Icons : http://www.onlinewebfonts.com/icon <rdf:RDF><cc:Work
     rdf:about=""><dc:format>image/svg+xml</dc:format><dc:type
       rdf:resource="http://purl.org/dc/dcmitype/StillImage" /><dc:title></dc:title></cc:Work></rdf:RDF></metadata><g
     id="g8"
     transform="matrix(0.1,0,0,-0.1,0,511)"
     style="fill:#ffffff"><path
       inkscape:connector-curvature="0"
       id="path10"
       d="m 1810,4975 c -62.5,-27.5 -110,-92.5 -235,-327.5 -135,-255 -155,-307.5 -142.5,-392.5 17.5,-125 40,-150 232.5,-257.5 l 160,-90 -100,-180 c -55,-100 -142.5,-255 -192.5,-345 L 1440,3215 1285,3202.5 c -305,-22.5 -582.5,-205 -647.5,-425 -80,-265 -42.5,-420 200,-832.5 315,-535 685,-1042.5 1017.5,-1397.5 382.5,-407.5 620,-437.5 1540,-210 225,55 415,97.5 420,90 5,-5 30,-127.5 55,-270 37.5,-225 42.5,-442.5 42.5,-1640 l 0,-1382.5 1830,0 1832.5,0 0,165 c 0,147.5 5,162.5 45,147.5 105,-42.5 325,-42.5 467.5,-2.5 112.5,35 172.5,72.5 275,172.5 110,112.5 140,165 200,342.5 37.5,117.5 190,537.5 342.5,932.5 300,797.5 382.5,1085 362.5,1282.5 -22.5,212.5 -45,245 -665,932.5 C 7975,1800 7317.5,2185 6757.5,2185 c -202.5,0 -320,-40 -432.5,-142.5 -135,-120 -202.5,-277.5 -322.5,-742.5 -95,-372.5 -130,-465 -177.5,-465 -12.5,0 -80,177.5 -150,395 -190,575 -310,767.5 -560,900 -117.5,62.5 -150,67.5 -415,67.5 -435,-2.5 -792.5,-95 -1387.5,-367.5 -325,-150 -570,-245 -625,-245 -50,0 -307.5,407.5 -542.5,860 -120,232.5 -247.5,460 -282.5,505 -35,45 -62.5,87.5 -62.5,97.5 0,12.5 345,632.5 365,660 5,5 75,-20 157.5,-57.5 257.5,-115 337.5,-65 550,347.5 150,290 160,377.5 60,485 C 2855,4565 2010,5010 1935,5010 c -25,-2.5 -82.5,-17.5 -125,-35 z M 7652.5,455 c 200,-207.5 235,-302.5 232.5,-645 -2.5,-547.5 -210,-1250 -430,-1457.5 -87.5,-85 -142.5,-80 -215,15 -65,87.5 -82.5,240 -105,942.5 -20,610 0,815 95,1017.5 62.5,135 182.5,257.5 247.5,257.5 27.5,0 105,-60 175,-130 z m -1640,-482.5 c 47.5,-45 62.5,-87.5 62.5,-172.5 0,-92.5 -12.5,-120 -77.5,-175 -107.5,-90 -227.5,-87.5 -325,7.5 -52.5,55 -72.5,97.5 -72.5,165 0,205 270,320 412.5,175 z M 6025,-980 c 95,-92.5 87.5,-242.5 -20,-337.5 -122.5,-110 -297.5,-85 -370,55 -70,140 -22.5,272.5 125,337.5 97.5,42.5 185,25 265,-55 z"
       style="fill:#ffffff" /><path
       inkscape:connector-curvature="0"
       id="path12"
       d="m 5292.5,4772.5 c -435,-120 -785,-450 -945,-887.5 -50,-135 -60,-210 -60,-450 0,-252.5 7.5,-310 70,-475 135,-372.5 480,-712.5 842.5,-835 172.5,-57.5 567.5,-80 755,-42.5 242.5,50 482.5,185 672.5,375 737.5,737.5 445,1955 -550,2295 -192.5,65 -582.5,75 -785,20 z"
       style="fill:#ffffff" /><path
       inkscape:connector-curvature="0"
       id="path14"
       d="m 200,-3615 0,-375 200,0 200,0 0,-400 0,-400 200,0 200,0 0,300 0,300 4000,0 4000,0 0,-300 0,-300 200,0 200,0 0,400 0,400 200,0 200,0 0,375 0,375 -4800,0 -4800,0 0,-375 z"
       style="fill:#ffffff" /></g></svg>